<svg width="390" height="93" viewBox="0 0 390 93" fill="none" xmlns="http://www.w3.org/2000/svg">
<g clip-path="url(#clip0_17_2)">
<path d="M51.0742 20.7207C53.3529 20.8574 55.2669 20.9714 56.8164 21.0625C58.4115 21.1081 59.7331 21.1536 60.7812 21.1992C61.9661 21.2448 62.9688 21.2448 63.7891 21.1992C64.6094 21.1536 65.7259 21.0397 67.1387 20.8574C68.3236 20.7207 69.8958 20.5156 71.8555 20.2422C73.8607 19.9232 76.3444 19.513 79.3066 19.0117C78.2585 20.0599 77.4382 21.0169 76.8457 21.8828C76.2988 22.7031 75.8659 23.4095 75.5469 24.002C75.1823 24.7311 74.9316 25.3464 74.7949 25.8477C74.7038 26.3034 74.7949 27.4427 75.0684 29.2656C75.3418 31.0885 75.7292 33.2533 76.2305 35.7598C76.7318 38.2207 77.2786 40.8639 77.8711 43.6895C78.4635 46.4694 79.056 49.0898 79.6484 51.5508C80.2409 53.9661 80.765 56.0397 81.2207 57.7715C81.722 59.4577 82.0866 60.4603 82.3145 60.7793C82.998 61.7363 83.431 62.3743 83.6133 62.6934C83.7956 62.9668 84.1146 63.2174 84.5703 63.4453C84.7526 63.5365 85.0488 63.6732 85.459 63.8555C85.8236 64.0378 86.3021 64.2656 86.8945 64.5391C87.5326 64.8125 88.3301 65.1315 89.2871 65.4961C87.5098 65.5872 85.9831 65.6556 84.707 65.7012C83.431 65.7012 82.3828 65.724 81.5625 65.7695C80.6055 65.8151 79.7852 65.8607 79.1016 65.9062C78.418 65.9062 77.5977 65.9518 76.6406 66.043C75.8203 66.1341 74.7493 66.2253 73.4277 66.3164C72.1517 66.4076 70.6478 66.4987 68.916 66.5898C69.8275 65.9518 70.5566 65.3822 71.1035 64.8809C71.696 64.334 72.1517 63.8783 72.4707 63.5137C72.8353 63.0579 73.0859 62.6478 73.2227 62.2832C73.3138 61.873 73.3822 61.2578 73.4277 60.4375C73.4733 59.7083 73.4733 58.7513 73.4277 57.5664C73.3822 56.3359 73.2682 54.7409 73.0859 52.7812L55.1074 54.627C54.6517 55.4017 54.3099 56.0853 54.082 56.6777C53.8542 57.2246 53.6947 57.7031 53.6035 58.1133C53.4668 58.6146 53.4212 59.0247 53.4668 59.3438C53.5579 59.7083 53.7174 60.1413 53.9453 60.6426C54.1732 61.0983 54.4922 61.6452 54.9023 62.2832C55.3581 62.8757 56.0189 63.582 56.8848 64.4023C55.7454 64.3568 54.5833 64.334 53.3984 64.334C52.2135 64.334 51.1198 64.3568 50.1172 64.4023C48.9323 64.4479 47.7702 64.4935 46.6309 64.5391C45.4915 64.5846 44.1927 64.653 42.7344 64.7441C41.5039 64.8353 40.0684 64.9492 38.4277 65.0859C36.7415 65.1771 34.9414 65.3138 33.0273 65.4961C34.2122 64.9492 35.2148 64.4023 36.0352 63.8555C36.8555 63.263 37.5391 62.7161 38.0859 62.2148C38.724 61.668 39.2708 61.1439 39.7266 60.6426C40.0456 60.1868 40.6836 59.1387 41.6406 57.498C42.5977 55.8118 43.6686 53.8294 44.8535 51.5508C46.084 49.2721 47.36 46.834 48.6816 44.2363C50.0488 41.6387 51.2793 39.2005 52.373 36.9219C53.4668 34.5977 54.3555 32.5924 55.0391 30.9062C55.7227 29.2201 56.0645 28.1263 56.0645 27.625C55.9733 27.0326 55.7454 26.3717 55.3809 25.6426C55.0618 25.0046 54.5605 24.2754 53.877 23.4551C53.2389 22.6348 52.3047 21.7233 51.0742 20.7207ZM72.2656 47.7227C71.9922 46.1276 71.7415 44.7604 71.5137 43.6211C71.2858 42.4362 71.1035 41.4564 70.9668 40.6816C70.7845 39.7702 70.6478 38.9727 70.5566 38.2891C70.4199 37.651 70.2604 36.8307 70.0781 35.8281C69.8958 34.9622 69.668 33.8913 69.3945 32.6152C69.1667 31.2936 68.8704 29.7214 68.5059 27.8984C65.9082 33.0938 63.8802 37.127 62.4219 39.998C61.0091 42.8236 59.9837 44.8971 59.3457 46.2188C58.571 47.7682 58.138 48.6797 58.0469 48.9531L72.2656 47.7227ZM91.8848 39.3145C92.1126 39.041 92.2493 38.5397 92.2949 37.8105C92.3861 37.0358 92.5684 36.1699 92.8418 35.2129C93.1608 34.2559 93.6849 33.2533 94.4141 32.2051C95.1432 31.1569 96.3281 30.1771 97.9688 29.2656C99.5638 28.3542 101.113 27.8073 102.617 27.625C104.121 27.4427 105.557 27.5111 106.924 27.8301C108.291 28.1491 109.567 28.6504 110.752 29.334C111.982 30.0176 113.099 30.7695 114.102 31.5898C114.785 32.1367 115.332 32.9342 115.742 33.9824C116.152 34.985 116.471 36.1243 116.699 37.4004C116.927 38.6764 117.087 40.0208 117.178 41.4336C117.314 42.8008 117.406 44.1452 117.451 45.4668C117.497 46.7428 117.52 47.9277 117.52 49.0215C117.565 50.0697 117.656 50.9355 117.793 51.6191C117.975 52.6217 118.294 53.4876 118.75 54.2168C119.206 54.9004 119.707 55.4928 120.254 55.9941C120.801 56.4499 121.348 56.8145 121.895 57.0879C122.441 57.3613 122.92 57.5664 123.33 57.7031C123.604 57.8398 123.854 57.931 124.082 57.9766C124.538 58.1589 124.857 58.1589 125.039 57.9766C124.766 58.6146 124.515 59.1615 124.287 59.6172C124.059 60.0729 123.877 60.4603 123.74 60.7793C123.558 61.1439 123.398 61.4401 123.262 61.668C123.125 61.9414 122.965 62.1921 122.783 62.4199C122.646 62.6478 122.464 62.8984 122.236 63.1719C122.008 63.4453 121.781 63.7415 121.553 64.0605C120.96 63.8327 120.391 63.5592 119.844 63.2402C119.342 62.9212 118.887 62.625 118.477 62.3516C117.975 62.0326 117.52 61.7135 117.109 61.3945C116.699 61.0755 116.312 60.7109 115.947 60.3008C115.628 59.9362 115.286 59.5488 114.922 59.1387C114.603 58.7285 114.329 58.2728 114.102 57.7715C113.828 58.3639 113.167 59.207 112.119 60.3008C111.117 61.3945 109.795 62.3971 108.154 63.3086C106.514 64.1745 104.6 64.7897 102.412 65.1543C100.27 65.5189 97.9004 65.2682 95.3027 64.4023C94.1634 64.0378 93.0924 63.5137 92.0898 62.8301C91.0872 62.1009 90.2214 61.235 89.4922 60.2324C88.8086 59.2298 88.3073 58.0905 87.9883 56.8145C87.7148 55.4928 87.7376 54.0345 88.0566 52.4395C88.3757 50.8444 88.9453 49.5 89.7656 48.4062C90.5859 47.3125 91.5658 46.4238 92.7051 45.7402C93.8444 45.0566 95.1204 44.5326 96.5332 44.168C97.946 43.8034 99.4043 43.5527 100.908 43.416C102.093 43.3704 103.278 43.4388 104.463 43.6211C105.465 43.8034 106.514 44.1452 107.607 44.6465C108.701 45.1022 109.635 45.8086 110.41 46.7656C110.365 44.3503 110.273 42.4362 110.137 41.0234C110.046 39.5651 109.954 38.4486 109.863 37.6738C109.681 36.7624 109.521 36.1243 109.385 35.7598C109.157 35.4408 108.906 35.0762 108.633 34.666C108.405 34.2559 108.109 33.8913 107.744 33.5723C107.38 33.2077 106.924 32.9115 106.377 32.6836C105.83 32.4557 105.192 32.3646 104.463 32.4102C103.688 32.4557 103.073 32.6608 102.617 33.0254C102.161 33.39 101.797 33.8229 101.523 34.3242C101.296 34.7799 101.159 35.2812 101.113 35.8281C101.068 36.375 101.09 36.8535 101.182 37.2637C101.273 37.5371 101.41 37.8333 101.592 38.1523C101.774 38.4258 102.025 38.722 102.344 39.041C102.663 39.36 103.096 39.6335 103.643 39.8613C102.594 39.998 101.66 40.112 100.84 40.2031C100.02 40.2487 99.3132 40.3171 98.7207 40.4082C98.0371 40.4993 97.4447 40.5677 96.9434 40.6133C96.4421 40.6589 95.8496 40.75 95.166 40.8867C94.5736 40.9779 93.8444 41.0918 92.9785 41.2285C92.1126 41.3652 91.11 41.5475 89.9707 41.7754C90.2441 41.4564 90.4948 41.1602 90.7227 40.8867C90.9505 40.5677 91.1556 40.2943 91.3379 40.0664C91.5202 39.793 91.7025 39.5423 91.8848 39.3145ZM102.139 47.4492C101.318 47.4948 100.498 47.6999 99.6777 48.0645C98.8574 48.3835 98.1283 48.862 97.4902 49.5C96.8522 50.0924 96.3053 50.7988 95.8496 51.6191C95.4395 52.3939 95.2344 53.2598 95.2344 54.2168C95.2344 55.1738 95.4622 56.0169 95.918 56.7461C96.4193 57.4297 97.0573 57.9993 97.832 58.4551C98.6523 58.9108 99.5182 59.1842 100.43 59.2754C101.387 59.3665 102.321 59.2754 103.232 59.002C104.098 58.6829 104.919 58.1816 105.693 57.498C106.468 56.7689 107.129 55.9941 107.676 55.1738C108.223 54.3079 108.61 53.4648 108.838 52.6445C109.066 51.7786 109.089 51.0723 108.906 50.5254C108.542 49.3405 107.721 48.5202 106.445 48.0645C105.169 47.5632 103.734 47.3581 102.139 47.4492ZM123.672 34.2559C124.538 34.3014 125.312 34.3242 125.996 34.3242C126.725 34.2786 127.34 34.2331 127.842 34.1875C128.434 34.1419 128.958 34.0964 129.414 34.0508C130.098 33.9596 130.804 33.8457 131.533 33.709C132.171 33.6178 132.832 33.5039 133.516 33.3672C134.245 33.1849 134.951 32.9798 135.635 32.752C135.361 33.4355 135.133 34.028 134.951 34.5293C134.769 35.0306 134.632 35.4635 134.541 35.8281C134.404 36.2383 134.336 36.5801 134.336 36.8535C134.29 37.1725 134.268 37.5599 134.268 38.0156C134.222 38.7904 134.222 40.0436 134.268 41.7754C136.637 39.7246 138.62 38.1296 140.215 36.9902C141.855 35.8509 143.154 34.9622 144.111 34.3242C145.251 33.5951 146.139 33.1165 146.777 32.8887C148.464 32.6152 149.945 33.0026 151.221 34.0508C151.768 34.5065 152.292 35.1217 152.793 35.8965C153.294 36.6257 153.727 37.6055 154.092 38.8359C154.456 40.0664 154.73 41.5475 154.912 43.2793C155.094 44.9655 155.117 46.9935 154.98 49.3633C154.023 49.4544 153.158 49.5456 152.383 49.6367C151.654 49.7279 151.038 49.7962 150.537 49.8418C149.945 49.9329 149.398 49.9785 148.896 49.9785L147.051 50.1836C146.413 50.2747 145.615 50.3659 144.658 50.457C143.747 50.5026 142.63 50.5938 141.309 50.7305C143.223 49.181 144.453 47.8366 145 46.6973C145.592 45.5124 145.843 44.5326 145.752 43.7578C145.661 42.8919 145.251 42.14 144.521 41.502C143.656 41.0007 142.721 40.8184 141.719 40.9551C140.853 41.0462 139.85 41.4336 138.711 42.1172C137.572 42.8008 136.364 44.0768 135.088 45.9453C135.179 48.862 135.27 51.2773 135.361 53.1914C135.498 55.1055 135.612 56.6549 135.703 57.8398C135.84 59.207 135.954 60.278 136.045 61.0527C136.182 61.7363 136.455 62.4655 136.865 63.2402C137.184 63.8783 137.64 64.5846 138.232 65.3594C138.825 66.1341 139.6 66.9089 140.557 67.6836C138.551 67.5924 136.911 67.5924 135.635 67.6836C134.86 67.7292 134.176 67.7747 133.584 67.8203C132.946 67.9115 132.262 68.0026 131.533 68.0938C130.895 68.1849 130.143 68.276 129.277 68.3672C128.457 68.5039 127.546 68.6406 126.543 68.7773C126.908 68.276 127.204 67.6836 127.432 67C127.66 66.362 127.842 65.7467 127.979 65.1543C128.161 64.4707 128.298 63.7643 128.389 63.0352C128.434 62.3971 128.457 61.4401 128.457 60.1641C128.503 58.888 128.48 57.4525 128.389 55.8574C128.343 54.2168 128.275 52.5306 128.184 50.7988C128.092 49.0215 127.979 47.3581 127.842 45.8086C127.705 44.2591 127.546 42.9147 127.363 41.7754C127.227 40.5905 127.067 39.7702 126.885 39.3145C126.657 38.7676 126.383 38.2207 126.064 37.6738C125.791 37.1725 125.449 36.6484 125.039 36.1016C124.629 35.5091 124.173 34.8939 123.672 34.2559ZM162.979 39.3145C163.206 39.041 163.343 38.5397 163.389 37.8105C163.48 37.0358 163.662 36.1699 163.936 35.2129C164.255 34.2559 164.779 33.2533 165.508 32.2051C166.237 31.1569 167.422 30.1771 169.062 29.2656C170.658 28.3542 172.207 27.8073 173.711 27.625C175.215 27.4427 176.65 27.5111 178.018 27.8301C179.385 28.1491 180.661 28.6504 181.846 29.334C183.076 30.0176 184.193 30.7695 185.195 31.5898C185.879 32.1367 186.426 32.9342 186.836 33.9824C187.246 34.985 187.565 36.1243 187.793 37.4004C188.021 38.6764 188.18 40.0208 188.271 41.4336C188.408 42.8008 188.499 44.1452 188.545 45.4668C188.59 46.7428 188.613 47.9277 188.613 49.0215C188.659 50.0697 188.75 50.9355 188.887 51.6191C189.069 52.6217 189.388 53.4876 189.844 54.2168C190.299 54.9004 190.801 55.4928 191.348 55.9941C191.895 56.4499 192.441 56.8145 192.988 57.0879C193.535 57.3613 194.014 57.5664 194.424 57.7031C194.697 57.8398 194.948 57.931 195.176 57.9766C195.632 58.1589 195.951 58.1589 196.133 57.9766C195.859 58.6146 195.609 59.1615 195.381 59.6172C195.153 60.0729 194.971 60.4603 194.834 60.7793C194.652 61.1439 194.492 61.4401 194.355 61.668C194.219 61.9414 194.059 62.1921 193.877 62.4199C193.74 62.6478 193.558 62.8984 193.33 63.1719C193.102 63.4453 192.874 63.7415 192.646 64.0605C192.054 63.8327 191.484 63.5592 190.938 63.2402C190.436 62.9212 189.98 62.625 189.57 62.3516C189.069 62.0326 188.613 61.7135 188.203 61.3945C187.793 61.0755 187.406 60.7109 187.041 60.3008C186.722 59.9362 186.38 59.5488 186.016 59.1387C185.697 58.7285 185.423 58.2728 185.195 57.7715C184.922 58.3639 184.261 59.207 183.213 60.3008C182.21 61.3945 180.889 62.3971 179.248 63.3086C177.607 64.1745 175.693 64.7897 173.506 65.1543C171.364 65.5189 168.994 65.2682 166.396 64.4023C165.257 64.0378 164.186 63.5137 163.184 62.8301C162.181 62.1009 161.315 61.235 160.586 60.2324C159.902 59.2298 159.401 58.0905 159.082 56.8145C158.809 55.4928 158.831 54.0345 159.15 52.4395C159.469 50.8444 160.039 49.5 160.859 48.4062C161.68 47.3125 162.66 46.4238 163.799 45.7402C164.938 45.0566 166.214 44.5326 167.627 44.168C169.04 43.8034 170.498 43.5527 172.002 43.416C173.187 43.3704 174.372 43.4388 175.557 43.6211C176.559 43.8034 177.607 44.1452 178.701 44.6465C179.795 45.1022 180.729 45.8086 181.504 46.7656C181.458 44.3503 181.367 42.4362 181.23 41.0234C181.139 39.5651 181.048 38.4486 180.957 37.6738C180.775 36.7624 180.615 36.1243 180.479 35.7598C180.251 35.4408 180 35.0762 179.727 34.666C179.499 34.2559 179.202 33.8913 178.838 33.5723C178.473 33.2077 178.018 32.9115 177.471 32.6836C176.924 32.4557 176.286 32.3646 175.557 32.4102C174.782 32.4557 174.167 32.6608 173.711 33.0254C173.255 33.39 172.891 33.8229 172.617 34.3242C172.389 34.7799 172.253 35.2812 172.207 35.8281C172.161 36.375 172.184 36.8535 172.275 37.2637C172.367 37.5371 172.503 37.8333 172.686 38.1523C172.868 38.4258 173.118 38.722 173.438 39.041C173.757 39.36 174.189 39.6335 174.736 39.8613C173.688 39.998 172.754 40.112 171.934 40.2031C171.113 40.2487 170.407 40.3171 169.814 40.4082C169.131 40.4993 168.538 40.5677 168.037 40.6133C167.536 40.6589 166.943 40.75 166.26 40.8867C165.667 40.9779 164.938 41.0918 164.072 41.2285C163.206 41.3652 162.204 41.5475 161.064 41.7754C161.338 41.4564 161.589 41.1602 161.816 40.8867C162.044 40.5677 162.249 40.2943 162.432 40.0664C162.614 39.793 162.796 39.5423 162.979 39.3145ZM173.232 47.4492C172.412 47.4948 171.592 47.6999 170.771 48.0645C169.951 48.3835 169.222 48.862 168.584 49.5C167.946 50.0924 167.399 50.7988 166.943 51.6191C166.533 52.3939 166.328 53.2598 166.328 54.2168C166.328 55.1738 166.556 56.0169 167.012 56.7461C167.513 57.4297 168.151 57.9993 168.926 58.4551C169.746 58.9108 170.612 59.1842 171.523 59.2754C172.48 59.3665 173.415 59.2754 174.326 59.002C175.192 58.6829 176.012 58.1816 176.787 57.498C177.562 56.7689 178.223 55.9941 178.77 55.1738C179.316 54.3079 179.704 53.4648 179.932 52.6445C180.16 51.7786 180.182 51.0723 180 50.5254C179.635 49.3405 178.815 48.5202 177.539 48.0645C176.263 47.5632 174.827 47.3581 173.232 47.4492ZM195.107 34.5977C196.156 34.5065 197.044 34.4154 197.773 34.3242C198.548 34.2331 199.186 34.1419 199.688 34.0508C200.28 33.9596 200.781 33.8685 201.191 33.7773C201.602 33.7318 202.057 33.6406 202.559 33.5039C203.014 33.4128 203.516 33.2988 204.062 33.1621C204.655 32.9798 205.293 32.7747 205.977 32.5469L205.566 41.2285C206.569 39.6335 207.731 38.4258 209.053 37.6055C210.374 36.7396 211.628 36.1016 212.812 35.6914C214.225 35.1901 215.638 34.8939 217.051 34.8027C218.509 34.8483 219.854 35.0762 221.084 35.4863C222.132 35.8509 223.18 36.4206 224.229 37.1953C225.322 37.9701 226.165 39.1094 226.758 40.6133C228.307 39.0182 229.834 37.7878 231.338 36.9219C232.887 36.0104 234.255 35.3268 235.439 34.8711C236.852 34.3698 238.174 34.0736 239.404 33.9824C241.045 33.9368 242.549 34.2103 243.916 34.8027C245.329 35.3952 246.559 36.1471 247.607 37.0586C248.656 37.9245 249.499 38.8587 250.137 39.8613C250.775 40.8184 251.139 41.6615 251.23 42.3906C251.367 43.3932 251.299 44.6921 251.025 46.2871C250.752 47.8366 250.433 49.4316 250.068 51.0723C249.704 52.6673 249.362 54.1484 249.043 55.5156C248.77 56.8372 248.656 57.7715 248.701 58.3184C248.838 58.7741 249.157 59.321 249.658 59.959C250.114 60.5059 250.775 61.1895 251.641 62.0098C252.552 62.7845 253.851 63.696 255.537 64.7441C254.079 64.6986 252.78 64.653 251.641 64.6074C250.547 64.5618 249.613 64.4935 248.838 64.4023C247.926 64.3112 247.129 64.2428 246.445 64.1973C245.898 64.1973 245.238 64.1517 244.463 64.0605C243.825 64.015 242.982 63.9466 241.934 63.8555C240.931 63.7643 239.769 63.6732 238.447 63.582C238.949 63.4453 239.359 63.1947 239.678 62.8301C239.997 62.4199 240.27 62.0326 240.498 61.668C240.726 61.2122 240.908 60.7109 241.045 60.1641C241.136 59.7083 241.227 58.9792 241.318 57.9766C241.41 56.974 241.478 55.8346 241.523 54.5586C241.615 53.2826 241.66 51.9382 241.66 50.5254C241.706 49.1126 241.706 47.7682 241.66 46.4922C241.615 45.2161 241.523 44.054 241.387 43.0059C241.25 41.9577 241.068 41.1602 240.84 40.6133C240.658 40.2031 240.339 39.8841 239.883 39.6562C239.427 39.3828 238.903 39.2233 238.311 39.1777C237.718 39.0866 237.126 39.1094 236.533 39.2461C235.941 39.3372 235.417 39.5195 234.961 39.793C234.551 40.112 234.004 40.5449 233.32 41.0918C232.728 41.5931 231.953 42.2767 230.996 43.1426C230.039 44.0085 228.831 45.1022 227.373 46.4238C227.236 49.2949 227.122 51.6191 227.031 53.3965C226.986 55.1283 226.94 56.4499 226.895 57.3613C226.849 58.4551 226.826 59.207 226.826 59.6172C226.781 59.9818 226.803 60.3236 226.895 60.6426C226.986 61.3262 227.259 61.9642 227.715 62.5566C227.168 62.4199 226.576 62.3288 225.938 62.2832C225.345 62.2376 224.798 62.1921 224.297 62.1465C223.704 62.1009 223.112 62.0781 222.52 62.0781C222.018 62.0781 221.471 62.1009 220.879 62.1465C220.378 62.1921 219.762 62.2604 219.033 62.3516C218.304 62.3971 217.507 62.4655 216.641 62.5566C217.005 62.3288 217.301 62.0553 217.529 61.7363C217.757 61.4173 217.939 61.1211 218.076 60.8477C218.258 60.5286 218.395 60.2324 218.486 59.959C218.532 59.6855 218.623 59.0247 218.76 57.9766C218.896 56.8828 218.988 55.6068 219.033 54.1484C219.079 52.6901 219.079 51.1634 219.033 49.5684C218.988 47.9277 218.828 46.4466 218.555 45.125C218.281 43.7578 217.848 42.6413 217.256 41.7754C216.709 40.9095 215.98 40.5221 215.068 40.6133C213.975 40.7044 212.858 40.9779 211.719 41.4336C210.762 41.7982 209.736 42.3451 208.643 43.0742C207.549 43.8034 206.523 44.7832 205.566 46.0137C205.384 49.4316 205.27 52.1432 205.225 54.1484C205.225 56.1536 205.247 57.6803 205.293 58.7285C205.339 59.959 205.384 60.8021 205.43 61.2578C205.475 61.5768 205.589 61.8958 205.771 62.2148C205.908 62.4883 206.068 62.8073 206.25 63.1719C206.478 63.5365 206.729 63.8783 207.002 64.1973L196.133 63.6504C196.497 63.4681 196.816 63.2402 197.09 62.9668C197.363 62.6478 197.591 62.3288 197.773 62.0098C197.956 61.6452 198.138 61.2806 198.32 60.916C198.457 60.597 198.571 59.8451 198.662 58.6602C198.799 57.4753 198.913 56.0853 199.004 54.4902C199.095 52.8496 199.163 51.1406 199.209 49.3633C199.3 47.5404 199.346 45.8542 199.346 44.3047C199.391 42.7096 199.414 41.3652 199.414 40.2715C199.414 39.1322 199.391 38.4486 199.346 38.2207C199.209 37.765 198.958 37.2865 198.594 36.7852C198.275 36.4206 197.842 36.0332 197.295 35.623C196.748 35.1673 196.019 34.8255 195.107 34.5977ZM255.879 19.0117C256.927 19.2852 257.884 19.4902 258.75 19.627C259.661 19.7181 260.436 19.7865 261.074 19.832C261.849 19.8776 262.555 19.9004 263.193 19.9004C263.831 19.9004 264.629 19.8548 265.586 19.7637C267.272 19.627 269.665 19.2852 272.764 18.7383C272.262 19.1029 271.784 19.4674 271.328 19.832C270.918 20.151 270.553 20.4701 270.234 20.7891L269.209 21.8145C268.617 22.6348 268.024 24.0247 267.432 25.9844C266.93 27.6706 266.383 30.0404 265.791 33.0938C265.244 36.1471 264.743 40.2031 264.287 45.2617C266.52 43.0742 268.617 41.4336 270.576 40.3398C272.581 39.2005 274.336 38.3802 275.84 37.8789C277.617 37.332 279.235 37.0358 280.693 36.9902C282.562 37.127 284.18 37.5143 285.547 38.1523C286.96 38.7448 288.145 39.474 289.102 40.3398C290.104 41.1602 290.902 42.026 291.494 42.9375C292.132 43.8034 292.611 44.5781 292.93 45.2617C293.112 45.7174 293.249 46.5605 293.34 47.791C293.477 48.9759 293.499 50.3431 293.408 51.8926C293.317 53.4421 293.066 55.0827 292.656 56.8145C292.292 58.5007 291.676 60.0729 290.811 61.5312C289.99 62.944 288.896 64.1289 287.529 65.0859C286.208 66.043 284.544 66.5671 282.539 66.6582C280.215 66.6582 277.959 66.3848 275.771 65.8379C273.903 65.3822 271.921 64.5846 269.824 63.4453C267.773 62.2604 266.019 60.5742 264.561 58.3867C264.561 58.9336 264.561 59.4805 264.561 60.0273C264.561 60.5286 264.583 60.9616 264.629 61.3262C264.674 61.8275 264.72 62.2604 264.766 62.625C264.811 63.0352 264.925 63.4681 265.107 63.9238C265.244 64.2884 265.449 64.7441 265.723 65.291C266.042 65.7923 266.452 66.2936 266.953 66.7949C266.452 66.7493 265.951 66.7266 265.449 66.7266C264.948 66.681 264.447 66.681 263.945 66.7266C263.398 66.7721 262.852 66.8177 262.305 66.8633C261.758 66.9089 261.188 66.9772 260.596 67.0684C260.094 67.1595 259.502 67.2734 258.818 67.4102C258.135 67.5469 257.428 67.7064 256.699 67.8887C256.836 67.4785 256.95 66.8861 257.041 66.1113C257.132 65.291 257.223 64.4023 257.314 63.4453C257.451 62.4427 257.542 61.3945 257.588 60.3008C257.679 59.207 257.77 58.1133 257.861 57.0195C258.044 54.513 258.203 51.7786 258.34 48.8164C258.477 44.2135 258.499 39.9297 258.408 35.9648C258.363 34.2786 258.271 32.5697 258.135 30.8379C258.044 29.1061 257.907 27.4883 257.725 25.9844C257.542 24.4349 257.292 23.0677 256.973 21.8828C256.699 20.6523 256.335 19.6953 255.879 19.0117ZM264.766 52.3027C265.495 53.6243 266.27 54.7637 267.09 55.7207C267.91 56.6322 268.73 57.4069 269.551 58.0449C270.371 58.6829 271.169 59.1842 271.943 59.5488C272.764 59.9134 273.538 60.1868 274.268 60.3691C275.954 60.8249 277.617 60.8704 279.258 60.5059C280.898 60.0501 282.174 59.1387 283.086 57.7715C283.997 56.4043 284.704 54.8548 285.205 53.123C285.433 52.3027 285.57 51.2546 285.615 49.9785C285.706 48.7025 285.57 47.472 285.205 46.2871C284.886 45.0566 284.294 43.9857 283.428 43.0742C282.562 42.1172 281.309 41.5475 279.668 41.3652C278.529 41.3652 277.207 41.6842 275.703 42.3223C274.382 42.8691 272.809 43.7806 270.986 45.0566C269.163 46.2871 267.09 48.1328 264.766 50.5938V52.3027ZM296.279 15.1836C297.327 15.3659 298.285 15.5026 299.15 15.5938C300.016 15.6393 300.745 15.6849 301.338 15.7305C302.021 15.776 302.614 15.7988 303.115 15.7988C303.799 15.7533 304.596 15.6849 305.508 15.5938C306.283 15.5026 307.217 15.3887 308.311 15.252C309.45 15.1152 310.749 14.9329 312.207 14.7051C311.523 15.0697 310.954 15.4342 310.498 15.7988C310.042 16.1178 309.678 16.4596 309.404 16.8242C309.085 17.2344 308.835 17.6217 308.652 17.9863C308.424 18.5788 308.174 19.8092 307.9 21.6777C307.627 23.2728 307.285 25.6426 306.875 28.7871C306.51 31.9316 306.032 36.1927 305.439 41.5703C307.08 39.9297 308.63 38.6992 310.088 37.8789C311.592 37.013 312.913 36.3978 314.053 36.0332C315.374 35.623 316.605 35.418 317.744 35.418C319.157 35.5547 320.592 36.0104 322.051 36.7852C323.555 37.5143 324.945 38.3802 326.221 39.3828C327.542 40.3854 328.682 41.4564 329.639 42.5957C330.641 43.735 331.348 44.7376 331.758 45.6035C332.031 46.196 332.168 46.9707 332.168 47.9277C332.168 48.8392 332.077 49.8418 331.895 50.9355C331.712 52.0293 331.462 53.1458 331.143 54.2852C330.824 55.4245 330.505 56.4954 330.186 57.498C329.912 58.5007 329.661 59.3893 329.434 60.1641C329.206 60.8932 329.069 61.4173 329.023 61.7363C328.932 62.4199 328.978 63.0807 329.16 63.7188C329.297 64.2656 329.57 64.8581 329.98 65.4961C330.391 66.0885 331.006 66.5898 331.826 67C331.188 66.9089 330.505 66.8405 329.775 66.7949C329.092 66.7038 328.431 66.6354 327.793 66.5898C327.064 66.5443 326.335 66.5215 325.605 66.5215H323.145C322.37 66.5215 321.481 66.5443 320.479 66.5898C319.476 66.5898 318.382 66.6126 317.197 66.6582C317.835 66.4303 318.382 66.1341 318.838 65.7695C319.294 65.3594 319.681 64.972 320 64.6074C320.365 64.1973 320.684 63.7643 320.957 63.3086C321.139 62.944 321.367 62.2604 321.641 61.2578C321.914 60.2096 322.165 59.0247 322.393 57.7031C322.62 56.3359 322.78 54.9004 322.871 53.3965C323.008 51.8926 323.031 50.457 322.939 49.0898C322.894 47.6771 322.689 46.4238 322.324 45.3301C322.005 44.2363 321.504 43.4388 320.82 42.9375C318.77 41.388 316.901 40.6361 315.215 40.6816C313.574 40.6816 312.002 41.3424 310.498 42.6641C309.951 43.1654 309.427 43.6667 308.926 44.168C308.47 44.6237 307.969 45.1706 307.422 45.8086C306.875 46.401 306.374 47.0163 305.918 47.6543C305.918 48.3379 305.941 49.0898 305.986 49.9102C306.032 50.7305 306.077 51.528 306.123 52.3027C306.169 53.1686 306.237 54.0345 306.328 54.9004C306.419 56.222 306.556 57.5208 306.738 58.7969C306.875 59.8906 307.057 61.0983 307.285 62.4199C307.513 63.696 307.809 64.8581 308.174 65.9062C307.581 65.8151 306.966 65.7923 306.328 65.8379C305.69 65.8379 305.075 65.8379 304.482 65.8379C303.799 65.8835 303.138 65.9062 302.5 65.9062C301.908 65.9518 301.292 66.0202 300.654 66.1113C300.107 66.2025 299.515 66.2936 298.877 66.3848C298.239 66.4303 297.624 66.5215 297.031 66.6582C297.578 65.61 298.034 64.5846 298.398 63.582C298.763 62.5339 299.059 61.6224 299.287 60.8477C299.561 59.9362 299.788 59.0475 299.971 58.1816C300.107 57.498 300.199 56.1992 300.244 54.2852C300.335 52.3255 300.404 50.0924 300.449 47.5859C300.495 45.0339 300.518 42.3451 300.518 39.5195C300.518 36.694 300.495 34.0052 300.449 31.4531C300.404 28.901 300.312 26.668 300.176 24.7539C300.085 22.8398 299.971 21.5182 299.834 20.7891C299.652 20.0599 299.401 19.3307 299.082 18.6016C298.809 17.9635 298.444 17.3483 297.988 16.7559C297.533 16.1178 296.963 15.5938 296.279 15.1836Z" fill="white"/>
</g>
<defs>
<clipPath id="clip0_17_2">
<rect width="390" height="93" fill="white"/>
</clipPath>
</defs>
</svg>
