<?xml version="1.0" standalone="no"?>
<!DOCTYPE svg PUBLIC "-//W3C//DTD SVG 20010904//EN"
 "http://www.w3.org/TR/2001/REC-SVG-20010904/DTD/svg10.dtd">
<svg version="1.0" xmlns="http://www.w3.org/2000/svg"
 width="539.000000pt" height="101.000000pt" viewBox="0 0 539.000000 101.000000"
 preserveAspectRatio="xMidYMid meet">

<g transform="translate(0.000000,101.000000) scale(0.100000,-0.100000)"
fill="#000000" stroke="none">
<path d="M0 505 l0 -505 2695 0 2695 0 0 505 0 505 -2695 0 -2695 0 0 -505z
m578 153 c76 -183 182 -447 182 -452 0 -3 -12 -6 -28 -6 -25 0 -30 6 -56 77
-16 43 -34 84 -39 91 -11 13 -233 17 -254 4 -7 -4 -26 -45 -43 -90 -30 -77
-34 -82 -61 -82 -26 0 -28 2 -20 22 30 76 195 476 202 491 7 12 22 17 48 17
39 0 39 0 69 -72z m698 12 c12 -30 61 -149 108 -263 l85 -208 -31 3 c-28 3
-33 9 -61 83 -17 44 -36 83 -42 87 -19 14 -242 9 -253 -5 -6 -7 -24 -47 -39
-87 -25 -66 -32 -75 -56 -78 -15 -2 -27 1 -27 6 0 5 43 114 96 243 53 129 100
244 105 257 8 20 15 23 51 20 41 -3 43 -5 64 -58z m744 32 c55 -27 83 -76 78
-140 -5 -61 -31 -95 -95 -124 -24 -10 -43 -21 -43 -23 0 -2 33 -44 73 -92 112
-136 104 -123 69 -123 -27 0 -42 14 -118 105 -48 58 -97 108 -109 111 -12 3
-39 4 -61 2 l-39 -3 -3 -107 c-3 -107 -3 -108 -27 -108 l-25 0 0 255 0 255 23
5 c83 18 226 12 277 -13z m695 -232 c58 -140 105 -259 105 -263 0 -5 -12 -7
-26 -5 -23 3 -31 14 -56 78 -16 41 -34 81 -40 88 -12 13 -234 18 -254 4 -6 -4
-25 -44 -43 -90 -29 -71 -37 -82 -57 -82 -13 0 -24 4 -24 8 0 5 43 114 96 243
52 129 100 244 105 257 8 20 15 23 50 20 l40 -3 104 -255z m530 61 c56 -106
105 -193 109 -193 5 0 54 87 110 194 97 186 102 193 134 196 l32 3 0 -265 0
-266 -25 0 -25 0 0 217 c0 162 -3 214 -11 206 -7 -7 -51 -87 -99 -180 -82
-159 -88 -168 -116 -168 -27 0 -34 10 -124 180 l-95 180 -3 -217 -2 -218 -30
0 -30 0 0 258 c0 142 3 262 7 266 4 4 21 6 38 4 28 -3 36 -14 130 -197z m1000
170 c49 -22 75 -61 75 -113 0 -40 -31 -94 -59 -103 -29 -9 -26 -20 9 -35 62
-26 85 -122 43 -178 -43 -58 -75 -67 -228 -67 l-140 0 -3 252 -2 252 32 5 c18
3 44 8 58 10 50 9 173 -4 215 -23z m405 -91 l0 -120 165 0 164 0 3 118 3 117
28 3 27 3 0 -265 0 -266 -30 0 -30 0 0 119 c0 86 -3 120 -12 124 -7 2 -80 4
-163 3 l-150 -2 -3 -122 -3 -122 -29 0 -30 0 0 258 c0 142 3 262 7 265 3 4 17
7 30 7 23 0 23 -1 23 -120z"/>
<path d="M490 655 c-5 -14 -28 -70 -50 -124 -22 -53 -40 -100 -40 -104 0 -4
47 -7 105 -7 63 0 105 4 105 10 0 17 -92 240 -101 246 -5 3 -13 -7 -19 -21z"/>
<path d="M1154 559 c-27 -67 -50 -126 -52 -130 -2 -5 47 -9 108 -9 86 0 111 3
107 13 -65 165 -100 247 -106 247 -4 0 -29 -55 -57 -121z"/>
<path d="M1775 668 c-3 -8 -4 -57 -3 -109 l3 -94 83 -3 c141 -5 209 45 186
135 -15 61 -50 77 -165 81 -78 3 -100 1 -104 -10z"/>
<path d="M2511 556 c-28 -69 -51 -127 -51 -130 0 -8 205 -8 212 0 7 7 -93 254
-103 254 -4 0 -30 -56 -58 -124z"/>
<path d="M3997 673 c-4 -3 -7 -46 -7 -95 l0 -88 94 0 c140 0 176 20 176 95 0
47 -16 70 -57 86 -28 10 -196 12 -206 2z"/>
<path d="M3999 439 c-6 -3 -8 -48 -7 -100 l3 -94 70 -3 c105 -5 154 5 187 38
53 53 26 142 -47 156 -46 8 -194 11 -206 3z"/>
</g>
</svg>
