<?xml version="1.0" standalone="no"?>
<!DOCTYPE svg PUBLIC "-//W3C//DTD SVG 20010904//EN"
 "http://www.w3.org/TR/2001/REC-SVG-20010904/DTD/svg10.dtd">
<svg version="1.0" xmlns="http://www.w3.org/2000/svg"
 width="538.000000pt" height="100.000000pt" viewBox="0 0 538.000000 100.000000"
 preserveAspectRatio="xMidYMid meet">

<g transform="translate(0.000000,100.000000) scale(0.100000,-0.100000)"
fill="#000000" stroke="none">
<path d="M0 500 l0 -500 2690 0 2690 0 0 500 0 500 -2690 0 -2690 0 0 -500z
m558 183 c6 -16 49 -122 97 -238 48 -116 91 -220 96 -233 8 -21 7 -23 -17 -20
-24 3 -31 14 -60 88 l-32 85 -134 3 -134 3 -35 -88 c-29 -72 -39 -89 -58 -91
-20 -3 -23 0 -17 15 4 10 51 127 104 260 l97 243 42 0 c36 0 42 -4 51 -27z
m774 -173 c44 -107 91 -223 104 -257 l24 -63 -23 0 c-20 0 -29 13 -58 88 l-35
87 -134 0 -134 0 -35 -87 c-29 -76 -38 -88 -58 -88 -13 0 -23 2 -23 4 0 2 43
109 96 237 53 129 100 244 105 257 8 20 15 23 50 20 l41 -3 80 -195z m691 176
c46 -23 67 -60 67 -121 0 -66 -21 -100 -80 -127 -28 -13 -50 -28 -50 -34 0 -6
34 -52 75 -103 93 -115 91 -111 63 -111 -17 0 -46 29 -113 110 l-89 110 -63 0
c-62 0 -63 -1 -64 -27 -1 -16 -2 -37 -3 -48 -1 -11 -3 -48 -4 -82 -2 -56 -4
-63 -22 -63 -19 0 -20 7 -20 254 l0 255 33 4 c77 11 232 1 270 -17z m590 12
c3 -7 50 -124 105 -261 95 -232 99 -247 78 -247 -18 0 -27 14 -56 87 l-35 88
-129 3 c-80 2 -133 -1 -140 -8 -5 -5 -24 -45 -41 -88 -25 -62 -36 -78 -54 -80
-17 -3 -22 0 -19 10 3 7 46 112 96 233 50 121 95 232 101 248 9 23 16 27 50
27 22 0 41 -5 44 -12z m590 -108 c152 -292 148 -286 166 -261 10 12 57 103
106 202 89 177 90 179 122 179 l33 0 0 -260 c0 -253 -1 -260 -20 -260 -19 0
-20 7 -20 214 0 201 -6 246 -27 214 -4 -7 -47 -87 -95 -178 -80 -153 -88 -165
-114 -165 -26 0 -35 12 -120 175 -50 96 -95 175 -100 175 -5 0 -10 -98 -12
-217 -2 -210 -3 -218 -22 -218 -19 0 -20 8 -20 261 l0 260 31 -3 c30 -3 36
-11 92 -118z m1021 102 c64 -22 91 -58 90 -118 -1 -47 -28 -88 -66 -100 -27
-8 -22 -20 20 -41 90 -47 83 -172 -12 -214 -53 -23 -162 -34 -250 -24 l-66 7
2 246 3 247 35 6 c72 13 194 8 244 -9z m428 -99 l3 -118 165 0 165 0 3 118 c3
116 3 118 25 115 l22 -3 0 -255 0 -255 -22 -3 c-22 -3 -22 -1 -25 120 l-3 123
-167 3 -168 2 0 -125 0 -125 -25 0 -25 0 0 260 0 260 25 0 24 0 3 -117z"/>
<path d="M491 659 c-5 -13 -28 -69 -50 -123 -59 -142 -62 -136 63 -136 58 0
107 4 110 9 6 9 -88 249 -104 265 -6 6 -13 0 -19 -15z"/>
<path d="M1150 550 c-28 -71 -49 -134 -45 -140 10 -15 215 -13 215 3 0 19
-102 267 -111 267 -4 0 -30 -58 -59 -130z"/>
<path d="M1793 673 c-22 -4 -23 -8 -23 -113 0 -122 -1 -120 80 -120 86 0 147
18 176 53 23 27 26 38 21 81 -5 56 -25 79 -85 96 -36 10 -125 11 -169 3z"/>
<path d="M2545 643 c-64 -153 -86 -215 -81 -228 4 -12 26 -15 105 -15 59 0
102 4 106 10 8 13 -93 270 -106 270 -5 0 -16 -17 -24 -37z"/>
<path d="M4007 674 c-16 -5 -17 -17 -15 -102 l3 -97 102 0 c87 0 105 3 130 21
34 25 49 78 34 116 -18 46 -54 62 -150 64 -47 2 -94 0 -104 -2z"/>
<path d="M3990 336 l0 -105 54 -6 c90 -12 195 12 221 48 17 25 20 89 4 119
-18 34 -70 48 -179 48 l-100 0 0 -104z"/>
</g>
</svg>
